<mxfile host="app.diagrams.net" agent="Mozilla/5.0 (Windows NT 10.0; Win64; x64) AppleWebKit/537.36 (KHTML, like Gecko) Chrome/136.0.0.0 Safari/537.36" version="27.0.3">
  <diagram name="Page-1" id="asaNXGTksNPqcVt-rAHo">
    <mxGraphModel dx="1424" dy="776" grid="1" gridSize="10" guides="1" tooltips="1" connect="1" arrows="1" fold="1" page="1" pageScale="1" pageWidth="850" pageHeight="1100" math="0" shadow="0">
      <root>
        <mxCell id="0" />
        <mxCell id="1" parent="0" />
        <mxCell id="Hz6mB-MO_VjGbIhKmzqd-1" value="" style="rounded=0;whiteSpace=wrap;html=1;" vertex="1" parent="1">
          <mxGeometry x="20" y="110" width="280" height="160" as="geometry" />
        </mxCell>
        <mxCell id="Hz6mB-MO_VjGbIhKmzqd-11" value="" style="verticalLabelPosition=bottom;verticalAlign=top;html=1;shape=mxgraph.basic.polygon;polyCoords=[[1,0],[1,1],[0.5,1],[0.5,0.5],[0,0.5],[0,0],[0,0],[0,0]];polyline=0;fillColor=#d5e8d4;strokeColor=#82b366;" vertex="1" parent="1">
          <mxGeometry x="20" y="110" width="280" height="160" as="geometry" />
        </mxCell>
        <mxCell id="Hz6mB-MO_VjGbIhKmzqd-13" style="edgeStyle=orthogonalEdgeStyle;rounded=0;orthogonalLoop=1;jettySize=auto;html=1;exitX=0.5;exitY=1;exitDx=0;exitDy=0;entryX=0.5;entryY=0;entryDx=0;entryDy=0;" edge="1" parent="1" source="Hz6mB-MO_VjGbIhKmzqd-2" target="Hz6mB-MO_VjGbIhKmzqd-3">
          <mxGeometry relative="1" as="geometry" />
        </mxCell>
        <mxCell id="Hz6mB-MO_VjGbIhKmzqd-2" value="Source code" style="rounded=0;whiteSpace=wrap;html=1;" vertex="1" parent="1">
          <mxGeometry x="30" y="40" width="120" height="60" as="geometry" />
        </mxCell>
        <mxCell id="Hz6mB-MO_VjGbIhKmzqd-8" style="edgeStyle=orthogonalEdgeStyle;rounded=0;orthogonalLoop=1;jettySize=auto;html=1;exitX=1;exitY=0.5;exitDx=0;exitDy=0;entryX=0;entryY=0.5;entryDx=0;entryDy=0;" edge="1" parent="1" source="Hz6mB-MO_VjGbIhKmzqd-3" target="Hz6mB-MO_VjGbIhKmzqd-5">
          <mxGeometry relative="1" as="geometry" />
        </mxCell>
        <mxCell id="Hz6mB-MO_VjGbIhKmzqd-3" value="Compiler, preprocessor" style="rounded=0;whiteSpace=wrap;html=1;fillColor=#dae8fc;strokeColor=#6c8ebf;" vertex="1" parent="1">
          <mxGeometry x="30" y="120" width="120" height="60" as="geometry" />
        </mxCell>
        <mxCell id="Hz6mB-MO_VjGbIhKmzqd-4" value="Platform specific functionality" style="rounded=0;whiteSpace=wrap;html=1;" vertex="1" parent="1">
          <mxGeometry x="30" y="200" width="120" height="60" as="geometry" />
        </mxCell>
        <mxCell id="Hz6mB-MO_VjGbIhKmzqd-5" value="JavaScript&lt;div&gt;interpreter&lt;/div&gt;" style="rounded=0;whiteSpace=wrap;html=1;" vertex="1" parent="1">
          <mxGeometry x="170" y="120" width="120" height="60" as="geometry" />
        </mxCell>
        <mxCell id="Hz6mB-MO_VjGbIhKmzqd-6" value="Standard&lt;div&gt;library&lt;/div&gt;" style="rounded=0;whiteSpace=wrap;html=1;" vertex="1" parent="1">
          <mxGeometry x="170" y="200" width="120" height="60" as="geometry" />
        </mxCell>
      </root>
    </mxGraphModel>
  </diagram>
</mxfile>
